<?xml version="1.0" encoding="utf-8"?>
<!-- Generator: Adobe Illustrator 21.1.0, SVG Export Plug-In . SVG Version: 6.00 Build 0)  -->
<svg version="1.1" id="Layer_1" xmlns="http://www.w3.org/2000/svg" xmlns:xlink="http://www.w3.org/1999/xlink" x="0px" y="0px"
	 viewBox="0 0 1985.8 1062.2" style="enable-background:new 0 0 1985.8 1062.2;" xml:space="preserve">
<style type="text/css">
	.st0{opacity:0.4;}
	.st1{fill:#2A394F;}
	.st2{fill:#FFFFFF;}
	.st3{fill:#1085C7;}
	.st4{font-family:'Overpass-Bold';}
	.st5{font-size:55.9361px;}
	.st6{fill:none;stroke:#1085C7;stroke-width:5.1029;stroke-linecap:round;stroke-linejoin:round;stroke-miterlimit:10;}
	.st7{fill:none;stroke:#FFFFFF;stroke-width:4.219;stroke-linecap:round;stroke-linejoin:round;stroke-miterlimit:10;}
	.st8{fill:#1085C7;stroke:#FFFFFF;stroke-width:4.219;stroke-linecap:round;stroke-linejoin:round;stroke-miterlimit:10;}
	.st9{fill:#CA2129;}
	.st10{fill:none;stroke:#CA2129;stroke-width:8.0034;stroke-miterlimit:10;}
	.st11{fill:none;stroke:#CA2129;stroke-width:7.2765;stroke-miterlimit:10;}
	.st12{fill:none;stroke:#CA2129;stroke-width:10.9999;stroke-miterlimit:10;}
	.st13{fill:none;stroke:#CA2129;stroke-width:7.7207;stroke-linecap:round;stroke-miterlimit:10;}
	.st14{fill:none;stroke:#CA2129;stroke-width:9.6946;stroke-linecap:round;stroke-miterlimit:10;}
	.st15{fill:#FFFFFF;stroke:#2A394F;stroke-width:6.104;stroke-miterlimit:10;}
	.st16{fill:none;stroke:#2A394F;stroke-width:6.1032;stroke-linecap:round;stroke-miterlimit:10;}
	.st17{fill:none;stroke:#1085C7;stroke-width:5.7905;stroke-miterlimit:10;}
	.st18{fill:#4F4F4F;}
	.st19{fill:#FFFFFF;stroke:#2A394F;stroke-width:6.5646;stroke-miterlimit:10;}
</style>
<g class="st0">
	<path class="st1" d="M1252.8,809.3c-17.6,0-31.8,14.3-31.8,31.8c0,7.7,2.7,14.8,7.3,20.3l-3.3,8.9l7.6-4.5
		c5.5,4.5,12.5,7.2,20.2,7.2c17.6,0,31.8-14.3,31.8-31.8C1284.7,823.5,1270.4,809.3,1252.8,809.3z"/>
	<g>
		<circle class="st2" cx="1237.5" cy="841.1" r="4.7"/>
		<circle class="st2" cx="1253.1" cy="841.1" r="4.7"/>
		<circle class="st2" cx="1268.7" cy="841.1" r="4.7"/>
	</g>
	<path class="st1" d="M1316.8,234.7h60.8c5.1,0,9.2,4.8,9.2,10.6v35.2c0,5.8-4.2,10.6-9.2,10.6l0,0c-0.5,0-0.9,0.6-0.7,1.2l2.3,6.4
		l-5.7-5.8c-1.1-1.1-2.6-1.8-4.1-1.8h-52.5c-5.1,0-9.2-4.8-9.2-10.6v-35.2C1307.6,239.5,1311.7,234.7,1316.8,234.7z"/>
	<path class="st3" d="M1986.2,492.2c-2.6,19.7-20.1,34.4-39.9,33.6c-9-0.3-17.1-3.7-23.5-9c-1.3-1.1-3-1.4-4.6-1l-8.4,2.4l4.2-6.1
		c1.1-1.7,1.2-3.8,0.2-5.5c-4.1-6.9-6.1-15.2-5.2-23.9c2.1-19.7,19.1-34.9,38.9-34.7C1971.3,448.2,1989.3,468.9,1986.2,492.2z"/>
	<g>
		<path class="st2" d="M1944,493.5c0-10.5,9.3-10.1,9.3-16.4c0-2.9-2-5-5.5-5c-4.1,0-6.5,2.6-6.5,7.1h-6.5c0-8.4,5.4-13.3,13-13.3
			c7.8,0,12,4.9,12,11.2c0,9.2-9.3,8.9-9.3,16.5v1.5h-6.5V493.5z M1942.8,502c0-2.4,1.9-4.4,4.5-4.4c2.5,0,4.5,2,4.5,4.4
			c0,2.5-2,4.4-4.5,4.4C1944.7,506.4,1942.8,504.5,1942.8,502z"/>
	</g>
	<text transform="matrix(1 0 0 1 419.8384 1032.699)" class="st2 st4 st5">?</text>
	<g>
		<path class="st2" d="M1319.1,262.5c0-2.9,2.3-5.2,5.3-5.2s5.3,2.3,5.3,5.2c0,2.9-2.3,5.2-5.3,5.2S1319.1,265.5,1319.1,262.5z"/>
		<path class="st2" d="M1339.8,262.5c0-2.9,2.3-5.2,5.3-5.2s5.3,2.3,5.3,5.2c0,2.9-2.3,5.2-5.3,5.2
			C1342.1,267.7,1339.8,265.5,1339.8,262.5z"/>
		<path class="st2" d="M1360.6,262.5c0-2.9,2.3-5.2,5.3-5.2s5.3,2.3,5.3,5.2c0,2.9-2.3,5.2-5.3,5.2S1360.6,265.5,1360.6,262.5z"/>
	</g>
	<path class="st1" d="M593.1,68.6h60.8c5.1,0,9.2,4.8,9.2,10.6v35.2c0,5.8-4.2,10.6-9.2,10.6l0,0c-0.5,0-0.9,0.6-0.7,1.2l2.3,6.4
		l-5.7-5.8c-1.1-1.1-2.6-1.8-4.1-1.8h-52.5c-5.1,0-9.2-4.8-9.2-10.6V79.2C583.9,73.3,588,68.6,593.1,68.6z"/>
	<g>
		<path class="st2" d="M595.4,96.4c0-2.9,2.3-5.2,5.3-5.2s5.3,2.3,5.3,5.2c0,2.9-2.3,5.2-5.3,5.2S595.4,99.3,595.4,96.4z"/>
		<path class="st2" d="M616.2,96.4c0-2.9,2.3-5.2,5.3-5.2s5.3,2.3,5.3,5.2c0,2.9-2.3,5.2-5.3,5.2C618.4,101.6,616.2,99.3,616.2,96.4
			z"/>
		<path class="st2" d="M636.9,96.4c0-2.9,2.3-5.2,5.3-5.2s5.3,2.3,5.3,5.2c0,2.9-2.3,5.2-5.3,5.2S636.9,99.3,636.9,96.4z"/>
	</g>
	<g>
		<g>
			<path class="st3" d="M491.5,546c-18.1,0.8-32.6,15.7-33,33.8c-0.2,10.5,4.2,20,11.4,26.5c3,2.7,4.9,6.5,5.1,10.5
				c0,0.1,0,0.3,0,0.4c0.6,7.3,5.5,13.4,12.1,15.7c0.9,2.3,3.2,4,5.9,4c2.7,0,5-1.7,5.9-4c7.1-2.4,12.2-9.2,12.2-17.1
				c0-0.1,0-0.2,0-0.3c0-3.2,1.4-6.1,3.8-8.1c7.8-6.4,12.8-16,12.8-26.8C527.8,560.9,511.4,545.1,491.5,546z"/>
		</g>
		<line class="st6" x1="457.3" y1="550.1" x2="446.1" y2="542.6"/>
		<line class="st6" x1="528.1" y1="550.1" x2="539.2" y2="542.6"/>
		<line class="st6" x1="493.1" y1="532" x2="493.1" y2="518.6"/>
		<line class="st6" x1="540.2" y1="582.6" x2="553.6" y2="582.6"/>
		<line class="st6" x1="429.9" y1="582.6" x2="443.3" y2="582.6"/>
		<line class="st7" x1="514.3" y1="612.7" x2="472.6" y2="612.7"/>
		<line class="st7" x1="500.7" y1="621.3" x2="485.5" y2="621.3"/>
		<path class="st8" d="M485.2,559.5c-8.3,5.1-13.9,14.1-14.1,24.4"/>
	</g>
	<circle class="st9" cx="1536.1" cy="537.1" r="9.9"/>
	<circle class="st9" cx="415.2" cy="843.1" r="9.9"/>
	<circle class="st9" cx="488.5" cy="321.5" r="10.1"/>
	<circle class="st9" cx="296.4" cy="58.2" r="9.9"/>
	<circle class="st10" cx="1121.6" cy="190.6" r="11.4"/>
	<circle class="st11" cx="1142.6" cy="537.6" r="10.9"/>
	<circle class="st12" cx="1707.3" cy="98.7" r="16.5"/>
	<g>
		<line class="st13" x1="967.5" y1="813.4" x2="980.2" y2="826.1"/>
		<line class="st13" x1="967.5" y1="826.1" x2="980.2" y2="813.4"/>
	</g>
	<g>
		<line class="st13" x1="870" y1="262.4" x2="883.8" y2="276.2"/>
		<line class="st13" x1="870" y1="276.2" x2="883.8" y2="262.4"/>
	</g>
	<g>
		<line class="st14" x1="6.8" y1="934.4" x2="30.7" y2="958.3"/>
		<line class="st14" x1="6.8" y1="958.3" x2="30.7" y2="934.4"/>
	</g>
	<g>
		<line class="st13" x1="1798.9" y1="841.2" x2="1812.8" y2="855.2"/>
		<line class="st13" x1="1798.9" y1="855.2" x2="1812.8" y2="841.2"/>
	</g>
	<g>
		<path class="st15" d="M1844.9,1059.2h-54.1c-5.8,0-10.5-4.7-10.5-10.5v-74.1c0-5.8,4.7-10.5,10.5-10.5h54.1
			c5.8,0,10.5,4.7,10.5,10.5v74.1C1855.4,1054.5,1850.7,1059.2,1844.9,1059.2z"/>
		<g>
			<line class="st16" x1="1798.9" y1="958.3" x2="1798.9" y2="970.5"/>
			<line class="st16" x1="1818" y1="958.3" x2="1818" y2="970.5"/>
			<line class="st16" x1="1836.8" y1="958.3" x2="1836.8" y2="970.5"/>
		</g>
		<line class="st17" x1="1792.4" y1="990.1" x2="1843.4" y2="990.1"/>
		<line class="st17" x1="1792.4" y1="1004.3" x2="1843.4" y2="1004.3"/>
		<line class="st17" x1="1792.4" y1="1018.6" x2="1843.4" y2="1018.6"/>
		<line class="st17" x1="1792.4" y1="1032.8" x2="1820" y2="1032.8"/>
	</g>
	<g>
		<path class="st15" d="M196.9,341.6h-54.1c-5.8,0-10.5-4.7-10.5-10.5V257c0-5.8,4.7-10.5,10.5-10.5h54.1c5.8,0,10.5,4.7,10.5,10.5
			v74.1C207.4,336.9,202.7,341.6,196.9,341.6z"/>
		<g>
			<line class="st16" x1="150.9" y1="240.7" x2="150.9" y2="252.9"/>
			<line class="st16" x1="170" y1="240.7" x2="170" y2="252.9"/>
			<line class="st16" x1="188.8" y1="240.7" x2="188.8" y2="252.9"/>
		</g>
		<line class="st17" x1="144.4" y1="272.5" x2="195.4" y2="272.5"/>
		<line class="st17" x1="144.4" y1="286.7" x2="195.4" y2="286.7"/>
		<line class="st17" x1="144.4" y1="301" x2="195.4" y2="301"/>
		<line class="st17" x1="144.4" y1="315.2" x2="172" y2="315.2"/>
	</g>
	<g>
		<polygon class="st2" points="1437.8,51.8 1433.1,56.5 1431.2,54.6 1429.3,56.5 1431.2,58.4 1433.1,60.3 1434.9,58.4 1439.6,53.7 
					"/>
		<rect x="1426" y="78.6" class="st18" width="16.9" height="9.3"/>
		<path class="st19" d="M1466.7,79.9h-64.5c-4.5,0-8.1-3.6-8.1-8.1V35.1c0-4.5,3.6-8.1,8.1-8.1h64.5c4.5,0,8.1,3.6,8.1,8.1v36.7
			C1474.8,76.2,1471.2,79.9,1466.7,79.9z"/>
		<circle class="st1" cx="1434.5" cy="54.9" r="12.9"/>
		<polygon class="st2" points="1433.3,50.1 1433.3,59.8 1439.5,54.9 		"/>
		<rect x="1421.6" y="87.3" class="st18" width="25.7" height="2.7"/>
	</g>
	<g>
		<polygon class="st2" points="790.6,792.8 785.9,797.5 784.1,795.6 782.2,797.5 784.1,799.4 785.9,801.3 787.8,799.4 792.5,794.7 
					"/>
		<rect x="778.9" y="819.5" class="st18" width="16.9" height="9.3"/>
		<path class="st19" d="M819.6,820.9h-64.5c-4.5,0-8.1-3.6-8.1-8.1v-36.7c0-4.5,3.6-8.1,8.1-8.1h64.5c4.5,0,8.1,3.6,8.1,8.1v36.7
			C827.7,817.2,824,820.9,819.6,820.9z"/>
		<circle class="st1" cx="787.3" cy="795.9" r="12.9"/>
		<polygon class="st2" points="786.1,791 786.1,800.8 792.3,795.9 		"/>
		<rect x="774.5" y="828.2" class="st18" width="25.7" height="2.7"/>
	</g>
	<g>
		<line class="st13" x1="1971.2" y1="234.3" x2="1983.9" y2="247.1"/>
		<line class="st13" x1="1971.2" y1="247.1" x2="1983.9" y2="234.3"/>
	</g>
	<g>
		<line class="st13" x1="1108.5" y1="993.4" x2="1121.2" y2="1006.1"/>
		<line class="st13" x1="1108.5" y1="1006.1" x2="1121.2" y2="993.4"/>
	</g>
	<path class="st3" d="M96.2,690.3C93.6,710,76.1,724.7,56.3,724c-9-0.3-17.1-3.7-23.5-9c-1.3-1.1-3-1.4-4.6-1l-8.4,2.4l4.2-6.1
		c1.1-1.7,1.2-3.8,0.2-5.5c-4.1-6.9-6.1-15.2-5.2-23.9c2.1-19.7,19.1-34.9,38.9-34.7C81.4,646.3,99.3,667,96.2,690.3z"/>
	<g>
		<path class="st2" d="M54,691.6c0-10.5,9.3-10.1,9.3-16.4c0-2.9-2-5-5.5-5c-4.1,0-6.5,2.6-6.5,7.1h-6.5c0-8.4,5.4-13.3,13-13.3
			c7.8,0,12,4.9,12,11.2c0,9.2-9.3,8.9-9.3,16.5v1.5H54V691.6z M52.8,700.1c0-2.4,1.9-4.4,4.5-4.4c2.5,0,4.5,2,4.5,4.4
			c0,2.5-2,4.4-4.5,4.4C54.7,704.5,52.8,702.6,52.8,700.1z"/>
	</g>
</g>
</svg>
