<svg id="Layer_1" data-name="Layer 1" xmlns="http://www.w3.org/2000/svg" viewBox="0 0 255.12 47.76"><defs><style>.cls-1{fill:#1085c7;}.cls-2{fill:#3e1312;}.cls-3{fill:#ca2128;}.cls-4{fill:#fff;}.cls-5{fill:#ca2129;}.cls-6{fill:#2a3843;}.cls-7{fill:none;stroke:#aab9bf;stroke-miterlimit:10;stroke-width:0.61px;}</style></defs><title>Artboard 1</title><path class="cls-1" d="M36.42,35.24,16.2,47.76l0-12c-1.8.47-16.17,4-16.17,4V8s14.37,3.51,16.17,4l0-12L36.42,12.51,22,23.62Z"/><polygon class="cls-2" points="36.42 35.24 17.7 23.63 36.42 12.51 56.32 23.63 36.42 35.24"/><path class="cls-3" d="M36.42,35.24,56.63,47.75l0-12c1.8.47,16.17,4,16.17,4V8s-14.37,3.51-16.17,4l0-12L36.42,12.51,56.31,23.62Z"/><path class="cls-4" d="M39.56,30.74l-2.18-3.12q-.21-.3-.43-.66t-.36-.62a4.9,4.9,0,0,1-.34.61q-.22.34-.44.66l-2.17,3.12H29.53l5-7.19-4.67-6.67H34l1.81,2.63.44.67a4.62,4.62,0,0,1,.34.6q.15-.26.36-.62t.43-.66l1.84-2.63H43.3l-4.66,6.67,5,7.19Z"/><path class="cls-4" d="M18.07,31.32a5.68,5.68,0,0,1-2.36-.48,4.88,4.88,0,0,1-1.81-1.4,6.57,6.57,0,0,1-1.16-2.28,10.76,10.76,0,0,1-.41-3.12,9.81,9.81,0,0,1,.44-3A6.9,6.9,0,0,1,14,18.74a5.22,5.22,0,0,1,1.82-1.43,5.32,5.32,0,0,1,2.3-.5,4,4,0,0,1,1.76.36,3.27,3.27,0,0,1,1.19,1V13l3.52-1.6V31H21.05V30a2.8,2.8,0,0,1-1.17,1,4.23,4.23,0,0,1-1.81.35m.57-3.39a3.21,3.21,0,0,0,1.44-.29,2.63,2.63,0,0,0,1-.82V21.34a2.25,2.25,0,0,0-.36-.4,2.62,2.62,0,0,0-.54-.37,3.17,3.17,0,0,0-.69-.26,3.24,3.24,0,0,0-.83-.1,2.37,2.37,0,0,0-2.05,1,4.85,4.85,0,0,0-.72,2.86,6.61,6.61,0,0,0,.18,1.6,3.73,3.73,0,0,0,.53,1.22,2.4,2.4,0,0,0,.87.78,2.52,2.52,0,0,0,1.19.27"/><path class="cls-4" d="M55.41,30.81a3.9,3.9,0,0,1-1.76-.37,3.32,3.32,0,0,1-1.19-1v4.83l-3.52,1.6V16.62h3.52v1a3.25,3.25,0,0,1,1.2-1,4,4,0,0,1,1.78-.36,5.64,5.64,0,0,1,2.34.48,4.89,4.89,0,0,1,1.81,1.4,6.6,6.6,0,0,1,1.16,2.28,10.8,10.8,0,0,1,.41,3.12,10,10,0,0,1-.43,3,6.81,6.81,0,0,1-1.2,2.28,5.23,5.23,0,0,1-1.82,1.43,5.32,5.32,0,0,1-2.3.5m-.54-3.39a2.37,2.37,0,0,0,2-1,4.82,4.82,0,0,0,.72-2.85,6.61,6.61,0,0,0-.18-1.6,3.67,3.67,0,0,0-.53-1.22,2.4,2.4,0,0,0-2.06-1.06,3.21,3.21,0,0,0-1.44.29,2.63,2.63,0,0,0-1,.82v5.48a2.23,2.23,0,0,0,.36.4,2.67,2.67,0,0,0,.53.37,3,3,0,0,0,.69.26,3.32,3.32,0,0,0,.83.1"/><polyline class="cls-1" points="36.42 35.24 16.2 47.77 16.17 35.76"/><path class="cls-5" d="M88.19,11.3c2.94,0,4,2.11,4,4.2,0,1.92-1,4.2-4.09,4.2H85.6V11.3Zm2.55,4.2c0-1.42-.67-2.84-2.27-2.84H87v5.68h1.31C90.13,18.34,90.74,16.81,90.74,15.5Z"/><path class="cls-5" d="M94,11.3h5.47v1.36h-4v2h2.48V16H95.41v2.3h4.29v1.36H94Z"/><path class="cls-5" d="M100.85,17.67l1.33-.49a2.06,2.06,0,0,0,1.88,1.3c.86,0,1.44-.4,1.44-1.16s-.85-1.1-1.8-1.43c-1.2-.41-2.54-.88-2.54-2.47,0-1.22,1-2.25,2.76-2.25a2.58,2.58,0,0,1,2.69,1.8l-1.29.43a1.5,1.5,0,0,0-1.49-.86c-.76,0-1.2.32-1.2.9s.73.86,1.61,1.15c1.22.43,2.73,1,2.73,2.73,0,1.62-1.3,2.53-3,2.53A3.18,3.18,0,0,1,100.85,17.67Z"/><path class="cls-5" d="M108.71,11.3h1.44v8.4h-1.44Z"/><path class="cls-5" d="M111.95,15.5c0-2.05,1.16-4.34,3.68-4.34a3.18,3.18,0,0,1,2.94,1.69l-1.28.73a2,2,0,0,0-1.66-1c-1.69,0-2.19,1.64-2.19,3,0,1.51.64,3,2.19,3a1.57,1.57,0,0,0,1.62-1.57v-.13h-1.48V15.39h2.94v1.16a3,3,0,0,1-3.08,3.29C113,19.84,111.95,17.69,111.95,15.5Z"/><path class="cls-5" d="M125.65,19.69l-3.48-5.3c-.11-.17-.24-.41-.35-.62a5.45,5.45,0,0,1,0,.62v5.3h-1.43V11.3h1.39l3.39,5.22a6.34,6.34,0,0,1,.35.64,6,6,0,0,1,0-.64V11.3H127v8.4Z"/><path class="cls-5" d="M131.76,11.3h5.47v1.36h-4v2h2.48V16H133.2v2.3h4.29v1.36h-5.73Z"/><path class="cls-5" d="M142.13,16.72l-1.82,3h-1.67l2.65-4.34-2.47-4.05h1.67l1.64,2.7,1.64-2.7h1.67L143,15.35l2.65,4.34h-1.67Z"/><path class="cls-5" d="M146.35,15.5c0-1.93.92-4.34,3.51-4.34a3,3,0,0,1,2.93,1.79l-1.3.59a1.79,1.79,0,0,0-1.63-1c-1.55,0-2,1.64-2,3s.61,3,2,3a1.84,1.84,0,0,0,1.61-1.08l1.33.5a3,3,0,0,1-2.94,2C147.25,19.84,146.35,17.57,146.35,15.5Z"/><path class="cls-5" d="M159.5,16h-3.67v3.65h-1.44V11.3h1.44v3.39h3.67V11.3h1.43v8.4H159.5Z"/><path class="cls-5" d="M167.72,17.86H164.4l-.66,1.83h-1.52l3.13-8.4h1.43l3.12,8.4h-1.51ZM166.34,14a7.1,7.1,0,0,1-.28-.85c-.07.25-.19.61-.28.85l-.94,2.52h2.41Z"/><path class="cls-5" d="M176.4,19.69l-3.48-5.3c-.11-.17-.24-.41-.35-.62a5.45,5.45,0,0,1,0,.62v5.3h-1.43V11.3h1.39L176,16.51a6.24,6.24,0,0,1,.35.64,6,6,0,0,1,0-.64V11.3h1.43v8.4Z"/><path class="cls-5" d="M179.45,15.5c0-2.05,1.16-4.34,3.68-4.34a3.18,3.18,0,0,1,2.94,1.69l-1.28.73a2,2,0,0,0-1.66-1c-1.69,0-2.19,1.64-2.19,3,0,1.51.64,3,2.19,3a1.57,1.57,0,0,0,1.62-1.57v-.13h-1.48V15.39h2.94v1.16a3,3,0,0,1-3.08,3.29C180.54,19.84,179.45,17.69,179.45,15.5Z"/><path class="cls-5" d="M187.93,11.3h5.47v1.36h-4v2h2.48V16h-2.48v2.3h4.29v1.36h-5.73Z"/><path class="cls-5" d="M198,11.3h3.49a2.5,2.5,0,0,1,2.82,2.6,2.59,2.59,0,0,1-2.82,2.61h-2.05v3.18H198Zm4.82,2.6a1.16,1.16,0,0,0-1.26-1.24h-2.12v2.48h2.12A1.17,1.17,0,0,0,202.87,13.9Z"/><path class="cls-5" d="M205.68,11.3h3.72c2.09,0,2.76,1.24,2.76,2.55a2.46,2.46,0,0,1-1.73,2.4l1.68,3.44h-1.62l-1.62-3.29h-1.75v3.29h-1.44ZM209.42,15a1.11,1.11,0,0,0,1.25-1.19,1.1,1.1,0,0,0-1.25-1.19h-2.3V15Z"/><path class="cls-5" d="M213.54,15.5c0-2.07,1-4.34,3.68-4.34s3.68,2.27,3.68,4.34-1,4.34-3.68,4.34S213.54,17.57,213.54,15.5Zm5.88,0c0-1.38-.56-3-2.19-3S215,14.2,215,15.5s.56,3,2.19,3S219.42,16.78,219.42,15.5Z"/><path class="cls-5" d="M222.35,15.5c0-2.05,1.16-4.34,3.68-4.34A3.18,3.18,0,0,1,229,12.84l-1.28.73a2,2,0,0,0-1.66-1c-1.69,0-2.19,1.64-2.19,3,0,1.51.64,3,2.19,3a1.57,1.57,0,0,0,1.62-1.57v-.13h-1.48V15.39h2.94v1.16A3,3,0,0,1,226,19.84C223.44,19.84,222.35,17.69,222.35,15.5Z"/><path class="cls-5" d="M230.83,11.3h3.72c2.09,0,2.76,1.24,2.76,2.55a2.46,2.46,0,0,1-1.73,2.4l1.68,3.44h-1.62L234,16.41h-1.75v3.29h-1.44ZM234.57,15a1.11,1.11,0,0,0,1.25-1.19,1.1,1.1,0,0,0-1.25-1.19h-2.3V15Z"/><path class="cls-5" d="M243.73,17.86h-3.32l-.66,1.83h-1.52l3.13-8.4h1.43l3.12,8.4h-1.51ZM242.35,14a7.1,7.1,0,0,1-.28-.85c-.07.25-.19.61-.28.85l-.94,2.52h2.41Z"/><path class="cls-5" d="M253.39,19.69V15.23c0-.3,0-.78,0-1-.11.32-.26.73-.38,1l-2,4.58-2-4.61c-.13-.29-.29-.68-.4-1,0,.23,0,.71,0,1v4.46h-1.44V11.3h1.45l2.16,4.93c.08.2.17.43.23.62.06-.19.14-.42.23-.62l2.17-4.93h1.4v8.4Z"/><path class="cls-6" d="M86.58,39.58H85.24V30.91h2.09a2.4,2.4,0,0,1,1.72.52,2.44,2.44,0,0,1,.78,2,2.3,2.3,0,0,1-1.17,2.25l1.27,3.94h-1.4L87.39,36h-.81Zm.49-4.8c.57,0,.83-.06,1-.27a1.85,1.85,0,0,0,0-2.09c-.21-.21-.47-.27-1-.27h-.49v2.64Z"/><path class="cls-6" d="M94.93,32.15H92.34v2.29h1.91v1.23H92.34v2.68h2.59v1.23H91V30.91h3.93Z"/><path class="cls-6" d="M95.85,30.91H98c1.7,0,2.51.87,2.51,2.72v3.24c0,1.85-.81,2.72-2.51,2.72H95.85Zm2,7.44c.95,0,1.29-.49,1.29-1.85V34c0-1.36-.34-1.85-1.29-1.85h-.66v6.2Z"/><path class="cls-6" d="M105,35.76v3.82h-1.34V30.91H105v3.61h1.91V30.91h1.34v8.67h-1.34V35.76Z"/><path class="cls-6" d="M111,37.7l-.35,1.89h-1.31L111,30.91h1.83l1.75,8.67h-1.38l-.36-1.89Zm.91-5.12-.7,3.89h1.42Z"/><path class="cls-6" d="M117.61,39.58h-1.34V32.15h-1.68V30.91h4.71v1.24h-1.69Z"/><path class="cls-6" d="M126.62,30.91v5.88a3.31,3.31,0,0,1-.49,2.15,2.47,2.47,0,0,1-3.6,0,3.3,3.3,0,0,1-.49-2.15V30.91h1.34V37c0,1,.27,1.44,1,1.44s.95-.42.95-1.44v-6.1Z"/><path class="cls-6" d="M131.29,33.33c-.21-.86-.6-1.29-1.14-1.29a.86.86,0,0,0-.87.88,1.3,1.3,0,0,0,.36.87,6.22,6.22,0,0,0,1.14.95,7.26,7.26,0,0,1,1.29,1.17,2.53,2.53,0,0,1,.56,1.59,2.18,2.18,0,0,1-2.38,2.21c-1.48,0-2.35-.79-2.63-2.44l1.29-.38c.17,1,.62,1.56,1.34,1.56a.94.94,0,0,0,1-1c0-.55-.27-.9-1.29-1.69a6.92,6.92,0,0,1-1.59-1.42,2.35,2.35,0,0,1-.48-1.44,2.11,2.11,0,0,1,2.26-2.13A2.45,2.45,0,0,1,132.57,33Z"/><path class="cls-6" d="M137.49,32.15H134.9v2.29h1.91v1.23H134.9v2.68h2.59v1.23h-3.93V30.91h3.93Z"/><path class="cls-6" d="M139.75,39.58h-1.34V30.91h2.09a2.4,2.4,0,0,1,1.72.52,2.44,2.44,0,0,1,.78,2,2.3,2.3,0,0,1-1.17,2.25l1.27,3.94h-1.4L140.55,36h-.81Zm.49-4.8c.57,0,.83-.06,1-.27a1.85,1.85,0,0,0,0-2.09c-.21-.21-.47-.27-1-.27h-.49v2.64Z"/><path class="cls-6" d="M150,32.15h-2.59v2.29h1.91v1.23h-1.91v2.68H150v1.23H146.1V30.91H150Z"/><path class="cls-6" d="M156.31,39.58h-1.48l-1.33-3.16-1.22,3.16h-1.47l1.94-4.52-1.86-4.15h1.48l1.16,2.78,1.08-2.78h1.46l-1.78,4.15Z"/><path class="cls-6" d="M158.49,39.58h-1.34V30.91h2.22a2.42,2.42,0,0,1,1.82.56,2.61,2.61,0,0,1,.69,2,2.62,2.62,0,0,1-.69,2,2.42,2.42,0,0,1-1.82.56h-.88Zm.58-4.75c1.08,0,1.42-.33,1.42-1.35s-.34-1.34-1.42-1.34h-.58v2.69Z"/><path class="cls-6" d="M166.84,32.15h-2.59v2.29h1.91v1.23h-1.91v2.68h2.59v1.23h-3.93V30.91h3.93Z"/><path class="cls-6" d="M169.1,39.58h-1.34V30.91h2.09a2.4,2.4,0,0,1,1.72.52,2.44,2.44,0,0,1,.78,2,2.3,2.3,0,0,1-1.17,2.25l1.27,3.94h-1.4L169.91,36h-.81Zm.49-4.8c.57,0,.83-.06,1-.27a1.85,1.85,0,0,0,0-2.09c-.21-.21-.47-.27-1-.27h-.49v2.64Z"/><path class="cls-6" d="M174.86,39.58h-1.34V30.91h1.34Z"/><path class="cls-6" d="M180.11,32.15h-2.59v2.29h1.91v1.23h-1.91v2.68h2.59v1.23h-3.93V30.91h3.93Z"/><path class="cls-6" d="M185.85,39.58h-1.2l-2.34-5.77v5.77H181V30.91h1.35l2.18,5.4v-5.4h1.27Z"/><path class="cls-6" d="M190.42,33.73v-.18c0-1-.35-1.51-1-1.51a.85.85,0,0,0-.79.43,2.2,2.2,0,0,0-.21,1.25v2.89a3.71,3.71,0,0,0,.14,1.29.9.9,0,0,0,.86.56,1,1,0,0,0,1-.86,4.89,4.89,0,0,0,.08-1.05h1.35v.3c0,1.89-.82,2.87-2.38,2.87a2.14,2.14,0,0,1-1.94-1,4,4,0,0,1-.42-2.33V34c0-1.38.1-1.86.51-2.4a2.17,2.17,0,0,1,1.83-.81c1.48,0,2.35,1,2.35,2.69v.26Z"/><path class="cls-6" d="M196.86,32.15h-2.59v2.29h1.91v1.23h-1.91v2.68h2.59v1.23h-3.93V30.91h3.93Z"/><path class="cls-6" d="M199.77,30.91h2.12c1.7,0,2.51.87,2.51,2.72v3.24c0,1.85-.81,2.72-2.51,2.72h-2.12Zm2,7.44c.95,0,1.29-.49,1.29-1.85V34c0-1.36-.34-1.85-1.29-1.85h-.66v6.2Z"/><path class="cls-6" d="M209.54,32.15H207v2.29h1.91v1.23H207v2.68h2.59v1.23h-3.93V30.91h3.93Z"/><path class="cls-6" d="M213.9,33.33c-.21-.86-.6-1.29-1.14-1.29a.86.86,0,0,0-.87.88,1.3,1.3,0,0,0,.36.87,6.22,6.22,0,0,0,1.14.95,7.24,7.24,0,0,1,1.29,1.17,2.53,2.53,0,0,1,.56,1.59,2.18,2.18,0,0,1-2.38,2.21c-1.48,0-2.35-.79-2.63-2.44l1.29-.38c.17,1,.62,1.56,1.34,1.56a.94.94,0,0,0,1-1c0-.55-.27-.9-1.29-1.69A6.92,6.92,0,0,1,211,34.36a2.35,2.35,0,0,1-.48-1.44,2.11,2.11,0,0,1,2.26-2.13A2.45,2.45,0,0,1,215.19,33Z"/><path class="cls-6" d="M217.51,39.58h-1.34V30.91h1.34Z"/><path class="cls-6" d="M223.48,35.28v4.3h-.69l-.25-.74a1.81,1.81,0,0,1-1.62.87,2,2,0,0,1-1.79-1,4.67,4.67,0,0,1-.38-2.31V34c0-1.38.1-1.87.51-2.4a2.19,2.19,0,0,1,1.83-.81,2.14,2.14,0,0,1,2,1.16,3.82,3.82,0,0,1,.31,1.79H222.1c0-1.2-.3-1.69-1-1.69a.85.85,0,0,0-.79.44,2.36,2.36,0,0,0-.19,1.25v2.65a4.58,4.58,0,0,0,.14,1.42.94.94,0,0,0,.91.65c.7,0,1-.51,1-1.72v-.35H221v-1.1Z"/><path class="cls-6" d="M229.47,39.58h-1.2l-2.34-5.77v5.77h-1.27V30.91H226l2.18,5.4v-5.4h1.27Z"/><path class="cls-6" d="M235.22,39.58h-1.34V32.15H232.2V30.91h4.71v1.24h-1.69Z"/><path class="cls-6" d="M241.77,32.15h-2.59v2.29h1.91v1.23h-1.91v2.68h2.59v1.23h-3.93V30.91h3.93Z"/><path class="cls-6" d="M244.3,37.7,244,39.58h-1.31l1.66-8.67h1.83l1.75,8.67h-1.38l-.36-1.89Zm.91-5.12-.7,3.89h1.42Z"/><path class="cls-6" d="M255.12,39.58h-1.27V33.2l-1.51,6.38h-.75l-1.5-6.38v6.38h-1.27V30.91h2l1.2,5.45,1.21-5.45h1.94Z"/><line class="cls-7" x1="85.35" y1="24.72" x2="254.91" y2="24.72"/></svg>