<?xml version="1.0" encoding="utf-8"?>
<!-- Generator: Adobe Illustrator 21.1.0, SVG Export Plug-In . SVG Version: 6.00 Build 0)  -->
<svg version="1.1" id="Layer_1" xmlns="http://www.w3.org/2000/svg" xmlns:xlink="http://www.w3.org/1999/xlink" x="0px" y="0px"
	 width="15.8px" height="59.8px" viewBox="0 0 15.8 59.8" style="enable-background:new 0 0 15.8 59.8;" xml:space="preserve">
<style type="text/css">
	.st0{fill:#2A3843;}
	.st1{fill:#99CC33;}
	.st2{fill:#FFFFFF;}
	.st3{fill:#CC3333;}
</style>
<g>
	<g>
		<path class="st0" d="M13.6,9c0-1.5-0.5-2.7-1.6-3.9c-0.3-0.3-0.9-0.3-1.1,0c-0.3,0.3-0.3,0.9,0,1.1c0.9,0.9,1.2,1.6,1.2,2.7
			c0,1.2-0.4,2.2-1.3,3.1c-0.7,0.7-1.6,1.2-2.7,1.3l1-1c0.3-0.3,0.3-0.9,0-1.1c-0.3-0.3-0.9-0.3-1.1,0l-2.9,2.9L8.1,17
			c0.1,0.1,0.3,0.2,0.5,0.2S9,17.1,9.1,17c0.3-0.3,0.3-0.9,0-1.1l-1.1-1.1c1.5-0.1,2.8-0.6,3.9-1.7S13.6,10.6,13.6,9z"/>
		<path class="st0" d="M3.4,9c0-1.2,0.4-2.2,1.3-3.1c0.7-0.7,1.6-1.1,2.7-1.2l-1,1C6,6,6,6.5,6.4,6.8C6.5,7,6.7,7.1,6.9,7.1
			S7.3,7,7.4,6.9L10.3,4L7.4,1C7.1,0.7,6.6,0.7,6.4,1C6.1,1.3,6,1.8,6.4,2l1.1,1.1c-1.6,0.1-2.8,0.6-4,1.7C2.4,5.9,1.8,7.4,1.8,9
			c0,1.5,0.5,2.7,1.6,3.9c0.1,0.1,0.3,0.2,0.5,0.2c0.2,0,0.4-0.1,0.5-0.2c0.3-0.3,0.3-0.9,0-1.1C3.7,10.9,3.4,10.2,3.4,9z"/>
	</g>
</g>
<g>
	<circle class="st1" cx="7.9" cy="30.1" r="7.3"/>
	<polygon class="st2" points="10.3,27 7.2,30.1 5.5,28.4 3.9,30.1 5.5,31.8 7.2,33.3 8.8,31.8 12,28.5 	"/>
</g>
<g>
	<circle class="st3" cx="7.9" cy="50.9" r="7.3"/>
	<g>
		<rect x="6.6" y="46.8" class="st2" width="2.8" height="5"/>
		<rect x="6.6" y="52.5" class="st2" width="2.8" height="2.4"/>
	</g>
</g>
</svg>
