<?xml version="1.0" encoding="utf-8"?>
<!-- Generator: Adobe Illustrator 21.1.0, SVG Export Plug-In . SVG Version: 6.00 Build 0)  -->
<svg version="1.1" id="Layer_1" xmlns="http://www.w3.org/2000/svg" xmlns:xlink="http://www.w3.org/1999/xlink" x="0px" y="0px"
	 viewBox="0 0 1075.2 534.9" style="enable-background:new 0 0 1075.2 534.9;" xml:space="preserve">
<style type="text/css">
	.st0{fill:#2A394F;}
	.st1{fill:#FFFFFF;}
	.st2{font-family:'Overpass-Bold';}
	.st3{font-size:34.4587px;}
	.st4{letter-spacing:2;}
	.st5{fill:#1085C7;}
	.st6{fill:#FFFFFF;stroke:#1085C7;stroke-width:2.6438;stroke-linecap:round;stroke-linejoin:round;stroke-miterlimit:10;}
	.st7{fill:#1085C7;stroke:#FFFFFF;stroke-width:2.1858;stroke-linecap:round;stroke-linejoin:round;stroke-miterlimit:10;}
	.st8{fill:#CA2129;}
	.st9{fill:none;stroke:#CA2129;stroke-width:4.1465;stroke-miterlimit:10;}
	.st10{fill:none;stroke:#CA2129;stroke-width:5.6989;stroke-miterlimit:10;}
	.st11{fill:none;stroke:#CA2129;stroke-width:5.0227;stroke-linecap:round;stroke-miterlimit:10;}
	.st12{fill:none;stroke:#CA2129;stroke-width:6;stroke-linecap:round;stroke-miterlimit:10;}
	.st13{fill:#FFFFFF;stroke:#2A394F;stroke-width:3.1624;stroke-miterlimit:10;}
	.st14{fill:none;stroke:#2A394F;stroke-width:3.162;stroke-linecap:round;stroke-miterlimit:10;}
	.st15{fill:none;stroke:#1085C7;stroke-width:3;stroke-miterlimit:10;}
</style>
<path class="st0" d="M361,17.1h31.5c2.6,0,4.8,2.5,4.8,5.5v18.2c0,3-2.2,5.5-4.8,5.5h0c-0.3,0-0.5,0.3-0.4,0.6l1.2,3.3l-2.9-3
	c-0.6-0.6-1.3-0.9-2.1-0.9H361c-2.6,0-4.8-2.5-4.8-5.5V22.6C356.2,19.6,358.3,17.1,361,17.1z"/>
<text transform="matrix(1 0 0 1 360.9274 33.7731)" class="st1 st2 st3 st4">...</text>
<g>
	<g>
		<path class="st5" d="M251.3,274.8c-9.4,0.4-16.9,8.2-17.1,17.5c-0.1,5.5,2.2,10.4,5.9,13.7c1.6,1.4,2.5,3.4,2.7,5.5
			c0,0.1,0,0.1,0,0.2c0.3,3.8,2.8,6.9,6.3,8.1c0.5,1.2,1.7,2.1,3,2.1c1.4,0,2.6-0.9,3-2.1c3.7-1.3,6.3-4.8,6.3-8.9c0,0,0-0.1,0-0.1
			c0-1.6,0.7-3.2,2-4.2c4-3.3,6.6-8.3,6.6-13.9C270.1,282.5,261.6,274.3,251.3,274.8z"/>
	</g>
	<line class="st6" x1="233.6" y1="277" x2="227.8" y2="273.1"/>
	<line class="st6" x1="270.3" y1="277" x2="276.1" y2="273.1"/>
	<line class="st6" x1="252.2" y1="267.6" x2="252.2" y2="260.6"/>
	<line class="st6" x1="276.6" y1="293.7" x2="283.5" y2="293.7"/>
	<line class="st6" x1="219.4" y1="293.7" x2="226.4" y2="293.7"/>
	<line class="st7" x1="263.2" y1="309.4" x2="241.6" y2="309.4"/>
	<line class="st7" x1="256.1" y1="313.8" x2="248.3" y2="313.8"/>
	<path class="st7" d="M248.1,281.8c-4.3,2.6-7.2,7.3-7.3,12.6"/>
</g>
<circle class="st8" cx="306.8" cy="148.1" r="5.2"/>
<circle class="st9" cx="634.8" cy="82.4" r="5.9"/>
<circle class="st10" cx="938.2" cy="32.7" r="8.5"/>
<g>
	<line class="st11" x1="57.2" y1="465.7" x2="69.6" y2="478"/>
	<line class="st11" x1="57.2" y1="478" x2="69.6" y2="465.7"/>
</g>
<g>
	<line class="st12" x1="648.4" y1="504.2" x2="663.1" y2="518.9"/>
	<line class="st12" x1="648.4" y1="518.9" x2="663.1" y2="504.2"/>
</g>
<g>
	<path class="st13" d="M1009.5,530.3h-28c-3,0-5.4-2.4-5.4-5.4v-38.4c0-3,2.4-5.4,5.4-5.4h28c3,0,5.4,2.4,5.4,5.4v38.4
		C1014.9,527.9,1012.5,530.3,1009.5,530.3z"/>
	<g>
	</g>
	<g>
		<line class="st14" x1="985.7" y1="478" x2="985.7" y2="484.4"/>
		<line class="st14" x1="995.6" y1="478" x2="995.6" y2="484.4"/>
		<line class="st14" x1="1005.3" y1="478" x2="1005.3" y2="484.4"/>
	</g>
	<line class="st15" x1="982.3" y1="494.5" x2="1008.7" y2="494.5"/>
	<line class="st15" x1="982.3" y1="501.9" x2="1008.7" y2="501.9"/>
	<line class="st15" x1="982.3" y1="509.3" x2="1008.7" y2="509.3"/>
	<line class="st15" x1="982.3" y1="516.7" x2="996.6" y2="516.7"/>
</g>
</svg>
