<?xml version="1.0" encoding="utf-8"?>
<!-- Generator: Adobe Illustrator 21.1.0, SVG Export Plug-In . SVG Version: 6.00 Build 0)  -->
<svg version="1.1" id="Layer_1" xmlns="http://www.w3.org/2000/svg" xmlns:xlink="http://www.w3.org/1999/xlink" x="0px" y="0px"
	 viewBox="0 0 1075.2 534.9" style="enable-background:new 0 0 1075.2 534.9;" xml:space="preserve">
<style type="text/css">
	.st0{fill:#2A394F;}
	.st1{fill:#FFFFFF;}
	.st2{fill:#1085C7;}
	.st3{font-family:'Overpass-Bold';}
	.st4{font-size:28.9799px;}
	.st5{font-size:34.4587px;}
	.st6{letter-spacing:2;}
	.st7{fill:#CA2129;}
	.st8{fill:none;stroke:#CA2129;stroke-width:3.7699;stroke-miterlimit:10;}
	.st9{fill:none;stroke:#CA2129;stroke-width:4;stroke-linecap:round;stroke-miterlimit:10;}
	.st10{fill:#4F4F4F;}
	.st11{fill:#FFFFFF;stroke:#2A394F;stroke-width:3.4011;stroke-miterlimit:10;}
</style>
<g>
	<path class="st0" d="M692.8,421.8c-9.1,0-16.5,7.4-16.5,16.5c0,4,1.4,7.7,3.8,10.5l-1.7,4.6l3.9-2.4c2.8,2.3,6.5,3.7,10.5,3.7
		c9.1,0,16.5-7.4,16.5-16.5C709.3,429.2,701.9,421.8,692.8,421.8z"/>
	<g>
		<circle class="st1" cx="684.8" cy="438.3" r="2.4"/>
		<circle class="st1" cx="692.9" cy="438.3" r="2.4"/>
		<circle class="st1" cx="701" cy="438.3" r="2.4"/>
	</g>
	<path class="st0" d="M725.9,124.2h31.5c2.6,0,4.8,2.5,4.8,5.5v18.2c0,3-2.2,5.5-4.8,5.5h0c-0.3,0-0.5,0.3-0.4,0.6l1.2,3.3l-2.9-3
		c-0.6-0.6-1.3-0.9-2.1-0.9h-27.2c-2.6,0-4.8-2.5-4.8-5.5v-18.2C721.1,126.6,723.3,124.2,725.9,124.2z"/>
	<path class="st2" d="M1072.7,257.6c-1.4,10.2-10.4,17.8-20.7,17.4c-4.7-0.2-8.9-1.9-12.2-4.6c-0.7-0.6-1.6-0.7-2.4-0.5l-4.4,1.3
		l2.2-3.2c0.6-0.9,0.6-2,0.1-2.9c-2.1-3.6-3.2-7.9-2.7-12.4c1.1-10.2,9.9-18.1,20.1-18C1065,234.8,1074.3,245.5,1072.7,257.6z"/>
	<text transform="matrix(1 0 0 1 1045.4993 264.5617)" class="st1 st3 st4">?</text>
	<text transform="matrix(1 0 0 1 261.2043 537.5964)" class="st1 st3 st4">?</text>
	<text transform="matrix(1 0 0 1 725.8581 140.8552)" class="st1 st3 st5 st6">...</text>
	<circle class="st7" cx="813.8" cy="217.5" r="8.5"/>
	<circle class="st7" cx="191.3" cy="424.7" r="8.5"/>
	<circle class="st7" cx="226.8" cy="-0.9" r="8.5"/>
	<circle class="st8" cx="635.6" cy="281.1" r="5.7"/>
	<g>
		<line class="st9" x1="544.9" y1="424" x2="551.5" y2="430.6"/>
		<line class="st9" x1="544.9" y1="430.6" x2="551.5" y2="424"/>
	</g>
	<g>
		<line class="st9" x1="494.4" y1="138.5" x2="501.6" y2="145.7"/>
		<line class="st9" x1="494.4" y1="145.7" x2="501.6" y2="138.5"/>
	</g>
	<g>
		<line class="st9" x1="975.7" y1="438.4" x2="982.9" y2="445.6"/>
		<line class="st9" x1="975.7" y1="445.6" x2="982.9" y2="438.4"/>
	</g>
	<g>
		<polygon class="st1" points="788.6,29.4 786.1,31.8 785.2,30.9 784.2,31.8 785.2,32.8 786.1,33.8 787.1,32.8 789.5,30.4 		"/>
		<rect x="782.5" y="43.3" class="st10" width="8.8" height="4.8"/>
		<path class="st11" d="M803.6,44h-33.4c-2.3,0-4.2-1.9-4.2-4.2v-19c0-2.3,1.9-4.2,4.2-4.2h33.4c2.3,0,4.2,1.9,4.2,4.2v19
			C807.8,42.1,805.9,44,803.6,44z"/>
		<circle class="st0" cx="786.9" cy="31" r="6.7"/>
		<polygon class="st1" points="786.2,28.5 786.2,33.5 789.5,31 		"/>
		<rect x="780.2" y="47.8" class="st10" width="13.3" height="1.4"/>
	</g>
	<g>
		<polygon class="st1" points="453.3,413.3 450.9,415.7 449.9,414.8 448.9,415.7 449.9,416.7 450.9,417.7 451.8,416.7 454.3,414.3 
					"/>
		<rect x="447.2" y="427.2" class="st10" width="8.8" height="4.8"/>
		<path class="st11" d="M468.3,427.8h-33.4c-2.3,0-4.2-1.9-4.2-4.2v-19c0-2.3,1.9-4.2,4.2-4.2h33.4c2.3,0,4.2,1.9,4.2,4.2v19
			C472.5,426,470.6,427.8,468.3,427.8z"/>
		<circle class="st0" cx="451.6" cy="414.9" r="6.7"/>
		<polygon class="st1" points="451,412.4 451,417.4 454.2,414.9 		"/>
		<rect x="444.9" y="431.7" class="st10" width="13.3" height="1.4"/>
	</g>
	<circle class="st8" cx="565.6" cy="1.1" r="5.7"/>
	<g>
		<line class="st9" x1="1064.9" y1="124" x2="1071.5" y2="130.6"/>
		<line class="st9" x1="1064.9" y1="130.6" x2="1071.5" y2="124"/>
	</g>
</g>
</svg>
