<?xml version="1.0" encoding="utf-8"?>
<!-- Generator: Adobe Illustrator 21.1.0, SVG Export Plug-In . SVG Version: 6.00 Build 0)  -->
<svg version="1.1" id="Layer_1" xmlns="http://www.w3.org/2000/svg" xmlns:xlink="http://www.w3.org/1999/xlink" x="0px" y="0px"
	 viewBox="0 0 1075.2 534.9" style="enable-background:new 0 0 1075.2 534.9;" xml:space="preserve">
<style type="text/css">
	.st0{fill:#1085C7;}
	.st1{fill:#FFFFFF;stroke:#1085C7;stroke-width:1.9417;stroke-linecap:round;stroke-linejoin:round;stroke-miterlimit:10;}
	.st2{fill:#1085C7;stroke:#FFFFFF;stroke-width:1.6054;stroke-linecap:round;stroke-linejoin:round;stroke-miterlimit:10;}
	.st3{fill:#CA2129;}
	.st4{fill:none;stroke:#CA2129;stroke-width:4;stroke-linecap:round;stroke-miterlimit:10;}
	.st5{fill:#FFFFFF;stroke:#2A394F;stroke-width:3.1624;stroke-miterlimit:10;}
	.st6{fill:none;stroke:#2A394F;stroke-width:3.162;stroke-linecap:round;stroke-miterlimit:10;}
	.st7{fill:none;stroke:#1085C7;stroke-width:3;stroke-miterlimit:10;}
	.st8{fill:#FFFFFF;stroke:#2A394F;stroke-width:3.1226;stroke-miterlimit:10;}
	.st9{fill:#FFFFFF;}
	.st10{fill:#4F4F4F;}
</style>
<path class="st0" d="M210.4,517.5c-1.4,10.2-10.4,17.8-20.7,17.4c-4.7-0.2-8.9-1.9-12.2-4.6c-0.7-0.6-1.6-0.7-2.4-0.5l-4.4,1.3
	l2.2-3.2c0.6-0.9,0.6-2,0.1-2.9c-2.1-3.6-3.2-7.9-2.7-12.4c1.1-10.2,9.9-18.1,20.1-18C202.7,494.7,212,505.4,210.4,517.5z"/>
<g>
	<g>
		<path class="st0" d="M1050.6,11.4c-6.9,0.3-12.4,6-12.6,12.9c-0.1,4,1.6,7.6,4.4,10.1c1.1,1,1.9,2.5,2,4c0,0,0,0.1,0,0.1
			c0.2,2.8,2.1,5.1,4.6,6c0.4,0.9,1.2,1.5,2.2,1.5c1,0,1.9-0.6,2.2-1.5c2.7-0.9,4.6-3.5,4.6-6.5c0,0,0-0.1,0-0.1
			c0-1.2,0.5-2.3,1.5-3.1c3-2.4,4.9-6.1,4.9-10.2C1064.4,17.1,1058.1,11.1,1050.6,11.4z"/>
	</g>
	<line class="st1" x1="1037.5" y1="13" x2="1033.3" y2="10.1"/>
	<line class="st1" x1="1064.5" y1="13" x2="1068.7" y2="10.1"/>
	<line class="st1" x1="1051.2" y1="6.1" x2="1051.2" y2="1"/>
	<line class="st1" x1="1069.1" y1="25.3" x2="1074.2" y2="25.3"/>
	<line class="st1" x1="1027.1" y1="25.3" x2="1032.2" y2="25.3"/>
	<line class="st2" x1="1059.2" y1="36.8" x2="1043.4" y2="36.8"/>
	<line class="st2" x1="1054.1" y1="40" x2="1048.3" y2="40"/>
	<path class="st2" d="M1048.2,16.5c-3.2,1.9-5.3,5.4-5.4,9.3"/>
</g>
<circle class="st3" cx="48.8" cy="77.7" r="8.5"/>
<g>
	<line class="st4" x1="2" y1="229.7" x2="8.6" y2="236.3"/>
	<line class="st4" x1="2" y1="236.3" x2="8.6" y2="229.7"/>
</g>
<g>
	<path class="st5" d="M817.7,395.4h-28c-3,0-5.4-2.4-5.4-5.4v-38.4c0-3,2.4-5.4,5.4-5.4h28c3,0,5.4,2.4,5.4,5.4v38.4
		C823.1,392.9,820.6,395.4,817.7,395.4z"/>
	<g>
	</g>
	<g>
		<line class="st6" x1="793.8" y1="343.1" x2="793.8" y2="349.4"/>
		<line class="st6" x1="803.7" y1="343.1" x2="803.7" y2="349.4"/>
		<line class="st6" x1="813.5" y1="343.1" x2="813.5" y2="349.4"/>
	</g>
	<line class="st7" x1="790.4" y1="359.6" x2="816.9" y2="359.6"/>
	<line class="st7" x1="790.4" y1="366.9" x2="816.9" y2="366.9"/>
	<line class="st7" x1="790.4" y1="374.3" x2="816.9" y2="374.3"/>
	<line class="st7" x1="790.4" y1="381.7" x2="804.7" y2="381.7"/>
</g>
<g>
	<path class="st8" d="M332.5,167.7h-28.1c-2.9,0-5.4-2.4-5.4-5.4v-37.3c0-2.9,2.4-5.4,5.4-5.4h28.1c2.9,0,5.4,2.4,5.4,5.4v37.3
		C337.8,165.3,335.4,167.7,332.5,167.7z"/>
	<g>
		<g>
			<g>
				<circle class="st0" cx="309.3" cy="142.2" r="1.4"/>
				<rect x="312.6" y="141.1" class="st0" width="16.3" height="2.3"/>
			</g>
			<g>
				<circle class="st0" cx="309.3" cy="149.9" r="1.4"/>
				<rect x="312.6" y="148.7" class="st0" width="16.3" height="2.3"/>
			</g>
			<g>
				<circle class="st0" cx="309.3" cy="157.5" r="1.4"/>
				<rect x="312.6" y="156.4" class="st0" width="16.3" height="2.3"/>
			</g>
		</g>
	</g>
	<circle class="st0" cx="318.4" cy="132.5" r="5"/>
	<polygon class="st9" points="320,130.4 317.7,132.7 316.8,131.8 315.9,132.7 316.8,133.6 317.7,134.5 318.6,133.6 320.9,131.3 	"/>
	<path class="st10" d="M325.4,116h-3.9c-0.1-1.5-1.4-2.7-2.9-2.7s-2.8,1.2-2.9,2.7h-3.9c-2.1,0-3.8,1.7-3.8,3.8v3.8h21.2v-3.8
		C329.2,117.7,327.5,116,325.4,116z M318.6,116.9c-0.5,0-0.9-0.4-0.9-0.9c0-0.5,0.4-0.9,0.9-0.9s0.9,0.4,0.9,0.9
		C319.5,116.5,319.1,116.9,318.6,116.9z"/>
</g>
<circle class="st3" cx="1036.8" cy="372" r="5.2"/>
</svg>
